<svg xmlns="http://www.w3.org/2000/svg" viewBox="0 0 1000 1000"><path fill="#fff" d="M500 108c186.5 0 281.7 25.8 362.5 207.3h61.3c37.6 0 37.7 73.3 0 73.3h-31.6c23 32 97.8 107.3 97.8 194.5v290.6l-.1.5-.1.5-.1.5-.1.5-.1.5-.1.5-.1.5-.1.5-.2.5-.2.5-.2.5-.2.5-.2.4-.2.4-.2.5-.2.4-.2.4-.2.4-.3.4-.3.4-.3.4-.3.4-.3.4-.3.4-.4.4-.3.4-.3.4-.4.2-.4.3-.4.3-.2.4-.4.3-.4.3-.4.3-.4.3-.4.3-.4.3-.4.3-.4.3-.4.2-.4.2-.4.2-.4.2-.4.2-.5.2-.5.2-.5.2-.5.2-.5.1-.5.1-.5.1-.5.1-.5.1-.5.1-.5.1-.5.1H862.2c-11.3-.1-20.2-8.9-20.3-20.3v-47.2H158.1v47.2c-.1 11.4-9 20.1-20.3 20.3H28.3l-.5-.1-.5-.1-.5-.1-.5-.1-.5-.1-.5-.1-.5-.1-.5-.1-.5-.2-.5-.2-.5-.2-.5-.2-.5-.2-.5-.2-.4-.2-.4-.2-.4-.2-.4-.3-.4-.3-.4-.3-.4-.3-.4-.3-.4-.3-.4-.3-.3-.3-.4-.3-.4-.3-.2-.4-.3-.4-.3-.4-.4-.2-.3-.4-.3-.4-.3-.4-.3-.4-.3-.4-.3-.4-.3-.4-.2-.4-.2-.4-.2-.4-.2-.5-.2-.4-.2-.4-.2-.5-.2-.5-.2-.5-.2-.5-.1-.5-.1-.5-.1-.5-.1-.5-.1-.5-.1-.5-.1-.5-.1-.5V583.1c0-87.2 74.8-162.4 97.8-194.5H76.3c-37.7 0-37.6-73.3 0-73.3h61.3C218.3 133.8 313.5 108 500 108zm0 266.9h311.5c-35.3-184-151.7-212.4-311.5-212.4s-276.2 28.4-311.5 212.4H500zM296.1 643.7c-10.5-19.8-28.8-37.8-32.7-63.4-1.7-11.4-7.9-16.9-15.8-19.6l-103.8-36c-22.8-7.9-29.4 8.7-31.7 18.2-6.4 27.6-5.1 51.6 10.6 69.1 31.1 34.2 186.3 55.9 173.4 31.7zm407.8 0c-12.8 24.2 142.4 2.5 173.2-31.8 15.7-17.4 17.1-41.4 10.6-69.1-2.2-9.4-8.9-26.1-31.6-18.2l-103.8 36c-7.9 2.7-14 8.2-15.7 19.6-3.9 25.6-22.2 43.6-32.7 63.5z"/></svg>
